<?xml version="1.0" standalone="no"?><!DOCTYPE svg PUBLIC "-//W3C//DTD SVG 1.1//EN" "http://www.w3.org/Graphics/SVG/1.1/DTD/svg11.dtd"><svg t="1616479438795" class="icon" viewBox="0 0 1024 1024" version="1.1" xmlns="http://www.w3.org/2000/svg" p-id="21990" xmlns:xlink="http://www.w3.org/1999/xlink" width="200" height="200"><defs><style type="text/css"></style></defs><path d="M959.2 527.69c-0.46-2.5-1.65-4.89-3.57-6.82L521.35 86.6c-5.06-5.06-13.33-5.06-18.38 0L69.34 520.23c-0.97 0.97-1.76 2.07-2.36 3.24-2 2.29-3.23 5.27-3.23 8.55 0 7.18 5.82 13 13 13h114.88v348.54c0 19.11 14.8 34.66 33 34.66h217.59v0.15h152.95v-0.15h204.2c18.2 0 33-15.55 33-34.66V546.02h114.98c7.18 0 13-5.82 13-13 0-1.9-0.41-3.7-1.15-5.33zM569.17 902.22H468.22v-158.3c0-3.79 3.21-7 7-7h86.95c3.79 0 7 3.21 7 7v158.3z m237.2-8.66c0 4.69-3.21 8.66-7 8.66h-204.2v-158.3c0-18.2-14.8-33-33-33h-86.95c-18.2 0-33 14.8-33 33v158.3H224.63c-3.79 0-7-3.96-7-8.66V532.77c0-3.24-1.19-6.2-3.16-8.48-2.37-3.19-6.15-5.27-10.44-5.27h-96.72l404.85-404.85 405.85 405.85h-96.1c-0.82-0.16-1.67-0.25-2.54-0.25-7.18 0-13 5.82-13 13v360.79z" p-id="21991" fill="#2c2c2c"></path></svg>